# xmcd
#
# Track frame offsets: 
#        150
#        16013
#        34769
#        49898
#        66239
#        82276
#        98281
#        115824
#        133664
#        150685
#        164808
#        186062
#
# Disc length: 2699 seconds
#
# Revision: 0
# Processed by: cddbd v1.5.2PL0 Copyright (c) Steve Scherf et al.
# Submitted via: ExactAudioCopy v1.0b3
#
DISCID=9b0a890c
DTITLE=Hillered, Eva - Heaven and Hill
DYEAR=2011
DGENRE=Americana
TTITLE0=Singing Tree
TTITLE1=In The Circle
TTITLE2=Girl OF Many Secrets
TTITLE3=Fragility
TTITLE4=Carousel
TTITLE5=Water Song
TTITLE6=Stars On The Snow
TTITLE7=Bitter Moon
TTITLE8=Inisheer
TTITLE9=Kiss The Wind
TTITLE10=No One Knew
TTITLE11=Under The Stars
EXTD=
EXTT0=
EXTT1=
EXTT2=
EXTT3=
EXTT4=
EXTT5=
EXTT6=
EXTT7=
EXTT8=
EXTT9=
EXTT10=
EXTT11=
PLAYORDER=
